<svg width="800" height="800" viewBox="0 0 800 800" fill="none" xmlns="http://www.w3.org/2000/svg">
<g clip-path="url(#clip0_620_3036)">
<path fill-rule="evenodd" clip-rule="evenodd" d="M427.091 318.953C427.091 295.531 444.948 276.545 466.977 276.545C489.006 276.545 506.864 295.531 506.864 318.953V339.686V466.911H560.045V344.398H577.773C612.039 344.398 639.818 373.934 639.818 410.368V410.464V410.558V410.653V410.747V410.841V410.937V411.031V411.126V411.22V411.315V411.41V411.504V411.598V411.693V411.788V411.882V411.977V412.071V412.166V412.261V412.355V412.449V412.544V412.639V412.733V412.828V412.922V413.017V413.111V413.206V413.3V413.394V413.489V413.584V413.678V413.772V413.867V413.961V414.056V414.15V414.245V414.339V414.433V414.528V414.622V414.717V414.811V414.905V414.999V415.095V415.189V415.283V415.377V415.472V415.566V415.66V415.754V415.848V415.943V416.038V416.132V416.226V416.321V416.415V416.509V416.603V416.698V416.792V416.886V416.98V417.075V417.169V417.263V417.357V417.452V417.546V417.64V417.734V417.828V417.922V418.016V418.11V418.204V418.299V418.393V418.487V418.581V418.675V418.769V418.863V418.957V419.052V419.146V419.239V419.334V419.428V419.522V419.616V419.71V419.804V419.898V419.992V420.086V420.18V420.274V420.368V420.462V420.556V420.65V420.743V420.838V420.932V421.025V421.119V421.214V421.307V421.401V421.494V421.589V421.683V421.776V421.87V421.964V422.058V422.151V422.246V422.339V422.433V422.527V422.621V422.714V422.808V422.901V422.996V423.089V423.183V423.277V423.371V423.464V423.557V423.652V423.745V423.839V423.932V424.026V424.12V424.213V424.307V424.401V424.494V424.587V424.682V424.775V424.868V424.962V425.056V425.149V425.242V425.336V425.429V425.523V425.617V425.71V425.803V425.896V425.99V426.084V426.177V426.271V426.364V426.457V426.55V426.644V426.737V426.83V426.924V427.017V427.11V427.204V427.297V427.39V427.483V427.577V427.67V427.763V427.857V427.95V428.043V428.137V428.23V428.323V428.415V428.509V428.602V428.695V428.789V428.881V428.974V429.068V429.161V429.254V429.347V429.44V429.533V429.626V429.719V429.812V429.905V429.998V430.091V430.183V430.277V430.37V430.462V430.556V430.648V430.741V430.835V430.927V431.02V431.113V431.206V431.298V431.392V431.484V431.577V431.67V431.762V431.855V431.948V432.041V432.133V432.226V432.319V432.411V432.504V432.597V432.689V432.782V432.875V432.967V433.06V433.152V433.245V433.338V433.43V433.522V433.615V433.707V433.8V433.893V433.985V434.077V434.17V434.262V434.355V434.447V434.539V434.632V434.724V434.816V434.909V435.001V435.093V435.186V435.278V435.37V435.463V435.555V435.648V435.739V435.831V435.924V436.016V436.108V436.2V436.292V436.385V436.477V436.568V436.661V436.753V436.845V436.937V437.029V437.121V437.213V437.305V437.397V437.489V437.581V437.673V437.765V437.857V437.949V438.04V438.133V438.224V438.316V438.408V438.499V438.592V438.683V438.775V438.867V438.958V439.051V439.142V439.233V439.325V439.417V439.509V439.6V439.691V439.784V439.875V439.967V440.058V440.149V440.241V440.333V440.425V440.516V440.607V440.699V440.79V440.882V440.973V441.065V441.156V441.247V441.339V441.43V441.522V441.612V441.703V441.795V441.886V441.978V442.069V442.16V442.251V442.342V442.434V442.524V442.616V442.707V442.799V442.889V442.98V443.071V443.162V443.254V443.344V443.436V443.526V443.617V443.708V443.799V443.89V443.981V444.072V444.163V444.254V444.344V444.436V444.526V444.617V444.708V444.798V444.889V444.98V445.071V445.161V445.252V445.343V445.434V445.524V445.614V445.705V445.795V445.886V445.977V446.068V446.158V446.249V446.339V446.43V446.52V446.611V446.7V446.791V446.881V446.972V447.062V447.152V447.243V447.333V447.423V447.513V447.604V447.694V447.784V447.874V447.965V448.054V448.145V448.235V448.325V448.415V448.505V448.595V448.685V448.775V448.865V448.955V449.045V449.135V449.225V449.315V449.405V449.494V449.585V449.674V449.764V449.854V449.944V450.033V450.123V450.212V450.303V450.392V450.482V450.572V450.661V450.751V450.84V450.93V451.019V451.109V451.198V451.288V451.377V451.467V451.556V451.646V451.735V451.825V451.914V452.003V452.093V452.182V452.272V452.36V452.45V452.539V452.629V452.717V452.807V452.896V452.985V453.075V453.163V453.253V453.341V453.431V453.519V453.609V453.697V453.786V453.876V453.964V454.053V454.142V454.231V454.319V454.409V454.498V454.586V454.675V454.763V454.853V454.941V455.03V455.119V455.207V455.296V455.384V455.473V455.562V455.65V455.739V455.827V455.916V456.005V456.092V456.181V456.269V456.358V456.446V456.534V456.623V456.711V456.8V456.888V456.976V457.064V457.152V457.241V457.329V457.417V457.505C639.818 493.932 612.046 523.456 577.773 523.456H506.864V580H577.773C641.404 580 693 525.174 693 457.505V457.417V457.329V457.241V457.152V457.064V456.976V456.888V456.8V456.711V456.623V456.534V456.446V456.358V456.269V456.181V456.092V456.005V455.916V455.827V455.739V455.65V455.562V455.473V455.384V455.296V455.207V455.119V455.03V454.941V454.853V454.763V454.675V454.586V454.498V454.409V454.319V454.231V454.142V454.053V453.964V453.876V453.786V453.697V453.609V453.519V453.431V453.341V453.253V453.163V453.075V452.985V452.896V452.807V452.717V452.629V452.539V452.45V452.36V452.272V452.182V452.093V452.003V451.914V451.825V451.735V451.646V451.556V451.467V451.377V451.288V451.198V451.109V451.019V450.93V450.84V450.751V450.661V450.572V450.482V450.392V450.303V450.212V450.123V450.033V449.944V449.854V449.764V449.674V449.585V449.494V449.405V449.315V449.225V449.135V449.045V448.955V448.865V448.775V448.685V448.595V448.505V448.415V448.325V448.235V448.145V448.054V447.965V447.874V447.784V447.694V447.604V447.513V447.423V447.333V447.243V447.152V447.062V446.972V446.881V446.791V446.7V446.611V446.52V446.43V446.339V446.249V446.158V446.068V445.977V445.886V445.795V445.705V445.614V445.524V445.434V445.343V445.252V445.161V445.071V444.98V444.889V444.798V444.708V444.617V444.526V444.436V444.344V444.254V444.163V444.072V443.981V443.89V443.799V443.708V443.617V443.526V443.436V443.344V443.254V443.162V443.071V442.98V442.889V442.799V442.707V442.616V442.524V442.434V442.342V442.251V442.16V442.069V441.978V441.886V441.795V441.703V441.612V441.522V441.43V441.339V441.247V441.156V441.065V440.973V440.882V440.79V440.699V440.607V440.516V440.425V440.333V440.241V440.149V440.058V439.967V439.875V439.784V439.691V439.6V439.509V439.417V439.325V439.233V439.142V439.051V438.958V438.867V438.775V438.683V438.592V438.499V438.408V438.316V438.224V438.133V438.04V437.949V437.857V437.765V437.673V437.581V437.489V437.397V437.305V437.213V437.121V437.029V436.937V436.845V436.753V436.661V436.568V436.477V436.385V436.292V436.2V436.108V436.016V435.924V435.831V435.739V435.648V435.555V435.463V435.37V435.278V435.186V435.093V435.001V434.909V434.816V434.724V434.632V434.539V434.447V434.355V434.262V434.17V434.077V433.985V433.893V433.8V433.707V433.615V433.522V433.43V433.338V433.245V433.152V433.06V432.967V432.875V432.782V432.689V432.597V432.504V432.411V432.319V432.226V432.133V432.041V431.948V431.855V431.762V431.67V431.577V431.484V431.392V431.298V431.206V431.113V431.02V430.927V430.835V430.741V430.648V430.556V430.462V430.37V430.277V430.183V430.091V429.998V429.905V429.812V429.719V429.626V429.533V429.44V429.347V429.254V429.161V429.068V428.974V428.881V428.789V428.695V428.602V428.509V428.415V428.323V428.23V428.137V428.043V427.95V427.857V427.763V427.67V427.577V427.483V427.39V427.297V427.204V427.11V427.017V426.924V426.83V426.737V426.644V426.55V426.457V426.364V426.271V426.177V426.084V425.99V425.896V425.803V425.71V425.617V425.523V425.429V425.336V425.242V425.149V425.056V424.962V424.868V424.775V424.682V424.587V424.494V424.401V424.307V424.213V424.12V424.026V423.932V423.839V423.745V423.652V423.557V423.464V423.371V423.277V423.183V423.089V422.996V422.901V422.808V422.714V422.621V422.527V422.433V422.339V422.246V422.151V422.058V421.964V421.87V421.776V421.683V421.589V421.494V421.401V421.307V421.214V421.119V421.025V420.932V420.838V420.743V420.65V420.556V420.462V420.368V420.274V420.18V420.086V419.992V419.898V419.804V419.71V419.616V419.522V419.428V419.334V419.239V419.146V419.052V418.957V418.863V418.769V418.675V418.581V418.487V418.393V418.299V418.204V418.11V418.016V417.922V417.828V417.734V417.64V417.546V417.452V417.357V417.263V417.169V417.075V416.98V416.886V416.792V416.698V416.603V416.509V416.415V416.321V416.226V416.132V416.038V415.943V415.848V415.754V415.66V415.566V415.472V415.377V415.283V415.189V415.095V414.999V414.905V414.811V414.717V414.622V414.528V414.433V414.339V414.245V414.15V414.056V413.961V413.867V413.772V413.678V413.584V413.489V413.394V413.3V413.206V413.111V413.017V412.922V412.828V412.733V412.639V412.544V412.449V412.355V412.261V412.166V412.071V411.977V411.882V411.788V411.693V411.598V411.504V411.41V411.315V411.22V411.126V411.031V410.937V410.841V410.747V410.653V410.558V410.464V410.368C693 342.707 641.412 287.853 577.773 287.853H555.356C543.094 248.439 508.159 220 466.977 220C440.936 220 417.392 231.372 400.5 249.7C383.608 231.372 360.064 220 334.023 220C283.512 220 242.399 262.783 240.992 316.126H240.955V318.953V481.047C240.955 504.469 223.097 523.456 201.068 523.456C179.04 523.456 161.182 504.469 161.182 481.047V316.126H108V481.047C108 535.697 149.668 580 201.068 580C251.579 580 292.692 537.217 294.099 483.874H294.136V481.047V318.953C294.136 295.531 311.994 276.545 334.023 276.545C356.052 276.545 373.909 295.531 373.909 318.953V483.874H427.091V318.953ZM427.091 580V523.456H373.909V580H427.091Z" fill="url(#paint0_linear_620_3036)"/>
</g>
<defs>
<linearGradient id="paint0_linear_620_3036" x1="108" y1="400" x2="692.567" y2="400" gradientUnits="userSpaceOnUse">
<stop stop-color="#53CEF4"/>
<stop offset="0.724267" stop-color="#16576C"/>
<stop offset="1"/>
</linearGradient>
<clipPath id="clip0_620_3036">
<rect width="585" height="360" fill="white" transform="translate(108 220)"/>
</clipPath>
</defs>
</svg>
